<?xml version="1.0" encoding="UTF-8" standalone="no"?><!DOCTYPE svg PUBLIC "-//W3C//DTD SVG 1.1//EN" "http://www.w3.org/Graphics/SVG/1.1/DTD/svg11.dtd"><svg width="100%" height="100%" viewBox="0 0 96 96" version="1.1" xmlns="http://www.w3.org/2000/svg" xmlns:xlink="http://www.w3.org/1999/xlink" xml:space="preserve" style="fill-rule:evenodd;clip-rule:evenodd;stroke-linejoin:round;stroke-miterlimit:1.41421;"><path d="M62.565,0.355c13.238,-0.082 22.225,6.291 25.751,11.232c3.524,4.935 7.184,13.104 2.708,35.696c-4.474,22.588 -15.905,43.708 -24.396,47.461c-8.494,3.756 -22.73,-3.4 -29.396,-7.774c-6.663,-4.376 -28.868,-19.28 -33.68,-40.825c-2.086,-9.345 1.11,-17.221 5.351,-23.109c9.496,-13.2 37.191,-22.578 53.662,-22.681Z" style="fill:url(#_Linear1);fill-rule:nonzero;"/><g><path d="M26.302,38.769c-4.968,0 -7.705,-1.8 -7.705,-6.984c0,-9.577 7.561,-18.722 25.346,-18.722c3.312,0 12.097,1.872 19.441,1.872c3.528,0 6.697,-0.432 8.713,-1.728c-1.728,3.168 -2.736,5.256 -6.048,21.674c3.096,-3.528 6.264,-4.176 8.569,-4.176c4.608,0 7.993,2.376 7.993,8.137c0,5.833 -3.457,14.545 -3.457,18.577c0,1.801 0.72,3.024 2.88,3.024c3.168,0 4.464,-2.593 6.048,-6.337l3.024,0c-4.032,11.81 -9.577,13.322 -13.393,13.322c-6.265,0 -8.497,-4.033 -8.497,-8.137c0,-4.896 3.24,-13.754 3.24,-18.362c0,-2.376 -0.864,-3.672 -2.592,-3.672c-2.521,0 -4.393,2.809 -5.473,6.193c-1.224,6.264 -2.664,13.969 -4.393,23.546l-10.366,0l9.865,-45.94c-2.952,-0.216 -6.192,-0.792 -9.505,-1.224l-10.153,47.163l-10.368,0l10.297,-47.812c-8.065,0.288 -14.474,3.384 -14.474,14.689c0,3.672 0.936,4.249 1.008,4.897Z" style="fill:#fff;fill-rule:nonzero;"/></g><defs><linearGradient id="_Linear1" x1="0" y1="0" x2="1" y2="0" gradientUnits="userSpaceOnUse" gradientTransform="matrix(58.5752,61.7656,-61.7656,58.5752,24.1736,10.7369)"><stop offset="0" style="stop-color:#59b67e;stop-opacity:1"/><stop offset="1" style="stop-color:#84cfeb;stop-opacity:1"/></linearGradient></defs></svg>