<svg xmlns="http://www.w3.org/2000/svg" id="Ebene_1" width="283" height="113" viewBox="0 0 283.5 113.4"><style>.a{fill:#FFF;}</style><defs><filter id="Adobe_OpacityMaskFilter" filterUnits="userSpaceOnUse" x="5.9" y="7.4" width="90.2" height="95.4"><feColorMatrix type="matrix" values="-1 0 0 0 1  0 -1 0 0 1  0 0 -1 0 1  0 0 0 1 0" color-interpolation-filters="sRGB" result="source"/></filter></defs><mask maskUnits="userSpaceOnUse" x="5.9" y="7.4" width="90.2" height="95.4" id="SVGID_1_"><g filter="url(#Adobe_OpacityMaskFilter)"><linearGradient id="SVGID_2_" gradientUnits="userSpaceOnUse" x1="32.7" y1="18.4" x2="92.9" y2="78.6" gradientTransform="matrix(0.9996 0.0265 -0.0265 0.9996 -5.0195 -1.541)"><stop offset="0" stop-color="#000"/><stop offset="0.0864" stop-color="#1B1B1A"/><stop offset="0.2174" stop-color="#403F3F"/><stop offset="0.3767" stop-color="#636262"/><stop offset="0.5583" stop-color="#8F8E8E"/><stop offset="0.7585" stop-color="#C1C1C1"/><stop offset="0.9716" stop-color="#F8F8F8"/><stop offset="1" stop-color="#FFF"/></linearGradient><path d="M65.6 7.4c13.2-0.1 22.2 6.3 25.8 11.2 3.5 4.9 7.2 13.1 2.7 35.7 -4.5 22.6-15.9 43.7-24.4 47.5 -8.5 3.8-22.7-3.4-29.4-7.8 -6.7-4.4-28.9-19.3-33.7-40.8 -2.1-9.3 1.1-17.2 5.4-23.1C21.4 16.8 49.1 7.5 65.6 7.4z" fill="url(#SVGID_2_)"/></g></mask><linearGradient id="SVGID_3_" gradientUnits="userSpaceOnUse" x1="32.7" y1="18.4" x2="92.9" y2="78.6" gradientTransform="matrix(0.9996 0.0265 -0.0265 0.9996 -5.0195 -1.541)"><stop offset="0" stop-color="#59B67E"/><stop offset="1" stop-color="#84CFEB"/></linearGradient><path mask="url(#SVGID_1_)" d="M65.6 7.4c13.2-0.1 22.2 6.3 25.8 11.2 3.5 4.9 7.2 13.1 2.7 35.7 -4.5 22.6-15.9 43.7-24.4 47.5 -8.5 3.8-22.7-3.4-29.4-7.8 -6.7-4.4-28.9-19.3-33.7-40.8 -2.1-9.3 1.1-17.2 5.4-23.1C21.4 16.8 49.1 7.5 65.6 7.4z" fill="url(#SVGID_3_)"/><path d="M29.3 45.8c-5 0-7.7-1.8-7.7-7 0-9.6 7.6-18.7 25.3-18.7 3.3 0 12.1 1.9 19.4 1.9 3.5 0 6.7-0.4 8.7-1.7 -1.7 3.2-2.7 5.3-6 21.7 3.1-3.5 6.3-4.2 8.6-4.2 4.6 0 8 2.4 8 8.1 0 5.8-3.5 14.5-3.5 18.6 0 1.8 0.7 3 2.9 3 3.2 0 4.5-2.6 6-6.3h3c-4 11.8-9.6 13.3-13.4 13.3 -6.3 0-8.5-4-8.5-8.1 0-4.9 3.2-13.8 3.2-18.4 0-2.4-0.9-3.7-2.6-3.7 -2.5 0-4.4 2.8-5.5 6.2 -1.2 6.3-2.7 14-4.4 23.5H52.6l9.9-45.9c-3-0.2-6.2-0.8-9.5-1.2L42.8 74H32.5l10.3-47.8c-8.1 0.3-14.5 3.4-14.5 14.7C28.3 44.5 29.2 45.1 29.3 45.8z" class="a"/><path d="M106.3 38l-0.9 4.5c2.5-2.2 5.3-4.5 8.7-4.5 3.2 0 5 2.7 5 5.4 0 2.5-1.7 5.3-5.2 5.3 -4 0-2-4.8-4.2-4.8s-3.5 1.1-5.3 2.7l-5.8 27.4H88.3l7.6-36H106.3z" class="a"/><path d="M127.7 68.4c5.7 0 9.1-3.2 12.7-7.3h2.4c-4.1 6.6-10.2 13.3-19.8 13.3 -6.8 0-11.2-3.3-11.2-11.4 0-8.3 4.7-25.6 19.4-25.6 6.4 0 7.9 3.3 7.9 6.9 0 8.3-7.9 14.7-16.6 15.2 -0.1 1-0.1 2-0.1 2.9C122.5 67.2 124.2 68.4 127.7 68.4zM131.8 41.2c-3.7 0-7.2 7.7-8.6 14.8 5.5-0.4 10.4-5.9 10.4-11.9C133.6 42.3 133.2 41.2 131.8 41.2z" class="a"/><path d="M155.3 68.4c5.7 0 9.1-3.2 12.7-7.3h2.4c-4.1 6.6-10.2 13.3-19.8 13.3 -6.8 0-11.2-3.3-11.2-11.4 0-8.3 4.7-25.6 19.4-25.6 6.4 0 7.9 3.3 7.9 6.9 0 8.3-7.9 14.7-16.6 15.2 -0.1 1-0.1 2-0.1 2.9C150.1 67.2 151.8 68.4 155.3 68.4zM159.5 41.2c-3.7 0-7.2 7.7-8.6 14.8 5.5-0.4 10.4-5.9 10.4-11.9C161.3 42.3 160.8 41.2 159.5 41.2z" class="a"/><path d="M204 44.3c-2.6 0-4.5 3-5.6 6.6l-4.9 23.1h-10.4l5.3-24.8c0.1-0.6 0.2-1.2 0.2-1.8 0-1.6-0.6-3.2-2.2-3.2 -2.8 0-4.8 3.1-5.8 6.7l-4.9 23.1h-10.4l7.6-36h10.4l-0.8 3.7c3-3.5 6.3-4.1 8.8-4.1 3.8 0 6.6 1.7 7.4 6.2 3.5-5.3 7.3-6.1 10-6.1 4.6 0 8 2.4 8 8.1 0 5.8-3.5 14.5-3.5 18.6 0 1.8 0.7 3 2.9 3 3.2 0 4.5-2.6 6-6.3h3c-4 11.8-9.6 13.3-13.4 13.3 -6.3 0-8.5-4-8.5-8.1 0-4.9 3.2-13.8 3.2-18.4C206.6 45.6 205.7 44.3 204 44.3z" class="a"/><path d="M236.3 67.6c2.7 0 6.2-1.8 8.5-3.8 -1.5 8.2-6.7 10.7-12.5 10.7 -6.7 0-11.2-3.3-11.2-11.4 0-8.3 4.7-25.6 19.4-25.6 6.4 0 7.9 3.3 7.9 6.9 0 8.4-7.9 14.7-16.6 15.2 -0.1 0.7-0.1 1.5-0.1 2.2C231.8 66.1 233.8 67.6 236.3 67.6zM241.2 41.2c-3.6 0-7.2 8-8.7 14.8 5.6-0.3 10.5-5.8 10.5-11.9C243 42.3 242.6 41.2 241.2 41.2z" class="a"/></svg>
