<?xml version="1.0" standalone="no"?>
<!DOCTYPE svg PUBLIC "-//W3C//DTD SVG 20010904//EN"
 "http://www.w3.org/TR/2001/REC-SVG-20010904/DTD/svg10.dtd">
<svg version="1.0" xmlns="http://www.w3.org/2000/svg"
 width="247.000000pt" height="247.000000pt" viewBox="0 0 247.000000 247.000000"
 preserveAspectRatio="xMidYMid meet">
<metadata>
Created by potrace 1.11, written by Peter Selinger 2001-2013
</metadata>
<g transform="translate(0.000000,247.000000) scale(0.100000,-0.100000)"
fill="#000000" stroke="none">
<path d="M1392 2424 c-391 -57 -832 -244 -1046 -445 -112 -104 -183 -217 -227
-359 -34 -110 -32 -270 5 -395 100 -333 374 -661 786 -936 112 -75 298 -172
393 -204 l57 -19 48 45 c26 25 180 172 343 326 l296 281 -67 4 c-52 3 -76 10
-107 30 -91 60 -101 169 -40 434 40 175 46 247 21 282 -36 52 -123 6 -162 -85
-11 -27 -41 -160 -66 -298 -26 -137 -51 -274 -57 -303 l-10 -52 -135 0 c-97 0
-134 3 -134 12 0 11 236 1115 246 1149 3 12 -17 18 -113 31 -65 9 -119 15
-121 13 -1 -1 -59 -265 -128 -586 -68 -321 -127 -592 -130 -601 -5 -16 -20
-18 -141 -18 -135 0 -135 0 -130 22 30 125 258 1200 255 1203 -11 10 -143 -20
-195 -46 -68 -33 -100 -67 -135 -145 -18 -40 -22 -67 -23 -154 0 -58 4 -118 9
-134 l9 -28 -44 7 c-139 22 -188 121 -143 290 53 204 236 334 515 366 96 11
122 10 290 -12 227 -29 441 -32 508 -6 24 9 45 17 47 17 3 0 -6 -21 -20 -47
-13 -27 -33 -82 -45 -123 -24 -89 -82 -352 -78 -356 2 -2 25 12 51 31 99 70
235 68 307 -4 71 -71 75 -166 16 -411 -49 -202 -53 -234 -33 -265 13 -20 25
-25 60 -25 98 0 150 108 206 427 74 426 38 690 -118 864 -58 65 -173 140 -271
178 -153 59 -346 75 -549 45z"/>
</g>
</svg>
